<svg width="120" height="26" viewBox="0 0 120 26" fill="none" xmlns="http://www.w3.org/2000/svg">
<path d="M11.668 8.69398C11.5138 8.53981 11.3288 8.41647 11.1438 8.32397C11.853 7.4606 12.223 6.35054 12.223 5.20966C12.223 3.69876 11.5447 2.28036 10.3729 1.32448C9.44789 0.553611 8.27617 0.183594 6.73443 0.183594H0.320801V5.20966V7.42976V10.2049V13.0725V18.7461H7.53613C9.29371 18.7461 10.6196 18.3453 11.6372 17.4819C12.963 16.4027 13.7339 14.7993 13.7339 13.1034C13.7648 11.3766 12.9939 9.7732 11.668 8.69398ZM3.52761 3.17457H6.14857C7.62864 3.17457 8.12199 3.48291 8.39951 3.82209C8.73869 4.19211 8.95453 4.68547 8.95453 5.20966C8.95453 5.73385 8.76952 6.19637 8.39951 6.59722C8.09116 6.9364 7.62864 7.24475 6.14857 7.24475H3.52761V3.17457ZM9.7254 14.8918C9.29371 15.3235 8.64618 15.7243 6.95027 15.7243H3.52761V10.2666H6.98111C8.67702 10.2666 9.29371 10.6674 9.7254 11.0991C10.2188 11.6233 10.4963 12.3017 10.4963 12.98C10.4963 13.6892 10.2188 14.3676 9.7254 14.8918Z" fill="#313131"/>
<path d="M27.2087 6.07446H24.1869V18.7475H27.2087V6.07446Z" fill="#313131"/>
<path d="M25.6666 0.152344C24.6182 0.152344 23.7856 0.984882 23.7856 2.0641C23.7856 3.11248 24.6182 3.94502 25.6666 3.94502C26.7458 3.94502 27.5783 3.11248 27.5783 2.0641C27.5783 1.01572 26.7149 0.152344 25.6666 0.152344Z" fill="#313131"/>
<path d="M38.5868 6.90698C37.5692 6.19778 36.3975 5.82776 35.0716 5.82776C33.9307 5.82776 32.8515 6.10527 31.9573 6.62946C29.9531 7.80118 28.7197 10.0213 28.7197 12.3956C28.7197 14.8007 29.9222 16.9591 31.9573 18.1308C32.8515 18.655 34.0232 18.9634 35.1333 18.9634C36.3975 18.9634 37.5384 18.6242 38.4943 17.9458V18.0383C38.4943 19.4259 38.3093 20.3509 37.8776 20.9985C37.3226 21.831 36.3975 22.2627 35.1641 22.2627C33.2215 22.2627 32.1732 21.2143 31.4023 20.2276L31.2173 19.9809L29.028 22.016L29.1514 22.201C30.0147 23.5577 32.1423 25.1303 35.2875 25.1303C37.7234 25.1303 39.7277 23.9894 40.7761 21.9852C41.3002 20.9676 41.5161 19.7034 41.5161 17.8841V6.07444H38.5868V6.90698ZM38.4943 14.5848C37.7542 15.5407 36.6134 16.1266 35.4416 16.1266C33.3449 16.1266 31.7106 14.4923 31.7106 12.4264C31.7106 10.2988 33.2524 8.72623 35.3183 8.72623C36.5209 8.72623 37.7234 9.31209 38.4943 10.268V14.5848Z" fill="#313131"/>
<path d="M49.5027 5.82594C48.0535 5.82594 46.9434 6.35013 46.2342 6.84348V0.152344H43.2124V18.7457H46.2342V10.2661C46.8509 9.55694 47.8993 8.7244 49.441 8.7244C50.3352 8.7244 51.1986 9.12526 51.7228 9.80362C52.062 10.2353 52.3703 10.8212 52.3703 12.4246V18.7457H55.3921V12.5479C55.3921 10.5128 55.0221 9.18692 54.1587 8.07687C53.0179 6.65848 51.3528 5.82594 49.5027 5.82594Z" fill="#313131"/>
<path d="M75.0951 6.62946C74.2009 6.10527 73.1217 5.82776 71.9808 5.82776C70.6549 5.82776 69.4832 6.19778 68.4656 6.90698V6.10527H65.5363V24.9453H68.5581V17.9767C69.514 18.655 70.6549 18.9942 71.9191 18.9942C73.0292 18.9942 74.2317 18.6859 75.0951 18.1617C77.1302 16.9591 78.3327 14.8315 78.3327 12.4264C78.3636 10.0521 77.0993 7.83202 75.0951 6.62946ZM71.6108 16.1266C70.4699 16.1266 69.329 15.5407 68.5581 14.5848V10.2371C69.329 9.28125 70.5007 8.69539 71.7341 8.69539C73.8 8.69539 75.3418 10.2988 75.3418 12.3956C75.3418 14.4923 73.7075 16.1266 71.6108 16.1266Z" fill="#313131"/>
<path d="M85.8257 5.82776C82.2489 5.82776 79.6588 8.60289 79.6588 12.4264C79.6588 16.1882 82.4647 19.025 86.1957 19.025C89.3409 19.025 90.9443 17.36 91.4993 16.6508L91.6535 16.4349L89.6492 14.554L89.4642 14.7698C88.7858 15.5407 87.83 16.3116 86.1957 16.3116C84.3765 16.3116 82.8656 14.9857 82.5881 13.2281H91.8385L91.8693 12.9814C91.9002 12.7347 91.9002 12.5497 91.9002 12.4264C91.9002 8.66456 89.2792 5.82776 85.8257 5.82776ZM82.8964 10.5763C83.3898 9.34292 84.5615 8.51038 85.9182 8.51038C87.1208 8.51038 88.2925 9.37376 88.7242 10.5763H82.8964Z" fill="#313131"/>
<path d="M103.031 6.90698C102.014 6.19778 100.842 5.82776 99.5162 5.82776C98.3753 5.82776 97.2961 6.10527 96.4019 6.62946C94.3976 7.80118 93.1642 10.0213 93.1642 12.3956C93.1642 14.8007 94.3668 16.9591 96.4019 18.1308C97.2961 18.655 98.4678 18.9634 99.5779 18.9634C100.842 18.9634 102.045 18.5933 103.031 17.915V18.7167H105.961V6.07444H103.031V6.90698ZM102.939 14.5848C102.199 15.5407 101.058 16.1266 99.8862 16.1266C97.7895 16.1266 96.1552 14.4923 96.1552 12.4264C96.1552 10.2988 97.697 8.72623 99.7629 8.72623C100.965 8.72623 102.168 9.31209 102.939 10.268V14.5848Z" fill="#313131"/>
<path d="M119.59 0H116.568V18.7475H119.59V0Z" fill="#313131"/>
<path d="M63.8406 15.9706C63.4398 16.0939 62.7614 16.1556 62.3297 16.1556C61.5897 16.1556 60.8497 15.8781 60.5105 15.4772C60.2021 15.1072 60.1405 14.5213 60.1405 13.7813V8.78607H63.8406V6.07262H60.1405V0.152344H57.1187V13.5963C57.1187 15.2614 57.4887 16.4948 58.2595 17.3273C59.2154 18.4065 60.5721 18.9615 62.2372 18.9615C62.7614 18.9615 63.3473 18.8999 63.8406 18.8074V15.9706Z" fill="#313131"/>
<path d="M22.5834 5.9511C22.1826 5.85859 21.7509 5.82776 21.3192 5.82776C19.87 5.82776 18.7599 6.35195 18.0507 6.84531V6.07444H15.0289V18.7475H18.0507V10.268C18.6674 9.55876 19.7158 8.72623 21.2576 8.72623C21.7201 8.72623 22.1826 8.84957 22.6143 9.03457L22.5834 5.9511Z" fill="#313131"/>
<path d="M115.211 5.9511C114.81 5.85859 114.379 5.82776 113.947 5.82776C112.498 5.82776 111.388 6.35195 110.678 6.84531V6.07444H107.657V18.7475H110.678V10.268C111.295 9.55876 112.343 8.72623 113.885 8.72623C114.348 8.72623 114.81 8.84957 115.242 9.03457L115.211 5.9511Z" fill="#313131"/>
</svg>
