<svg width="118" height="35" viewBox="0 0 118 35" fill="none" xmlns="http://www.w3.org/2000/svg">
<path d="M10.2342 0C12.8861 0 15.1261 0.906957 16.9541 2.72087C18.7821 4.53479 19.6961 6.7374 19.6961 9.32871C19.6961 11.92 18.7821 14.1226 16.9541 15.9365C15.1261 17.7505 12.8861 18.6574 10.2342 18.6574H6.17916V27.2087H0V0H10.2342ZM10.2342 12.827C11.1869 12.827 11.9721 12.4901 12.59 11.8164C13.208 11.1426 13.5169 10.3134 13.5169 9.32871C13.5169 8.34401 13.208 7.51479 12.59 6.84105C11.9721 6.16731 11.1869 5.83044 10.2342 5.83044H6.17916V12.827H10.2342Z" fill="white"/>
<path d="M35.4364 7.77392H41.2293V27.2087H35.4364V25.3819C34.0718 26.9626 32.1537 27.7529 29.682 27.7529C27.1331 27.7529 24.9575 26.7682 23.1553 24.7988C21.353 22.8035 20.4519 20.3677 20.4519 17.4913C20.4519 14.615 21.353 12.1921 23.1553 10.2227C24.9575 8.2274 27.1331 7.22975 29.682 7.22975C32.1537 7.22975 34.0718 8.0201 35.4364 9.60079V7.77392ZM27.5193 20.9507C28.3689 21.8059 29.476 22.2334 30.8406 22.2334C32.2052 22.2334 33.3123 21.8059 34.1619 20.9507C35.0115 20.0956 35.4364 18.9425 35.4364 17.4913C35.4364 16.0402 35.0115 14.8871 34.1619 14.0319C33.3123 13.1768 32.2052 12.7492 30.8406 12.7492C29.476 12.7492 28.3689 13.1768 27.5193 14.0319C26.6697 14.8871 26.2449 16.0402 26.2449 17.4913C26.2449 18.9425 26.6697 20.0956 27.5193 20.9507Z" fill="white"/>
<path d="M57.6445 7.77392H63.8237L57.2197 26.6257C56.1384 29.6834 54.7094 31.8731 52.9329 33.1946C51.1822 34.5162 48.9422 35.1122 46.2131 34.9826V29.5409C47.5519 29.5409 48.5818 29.2947 49.3027 28.8024C50.0236 28.3359 50.6029 27.5067 51.0406 26.3147L43.3552 7.77392H49.7275L54.0143 19.668L57.6445 7.77392Z" fill="white"/>
<path d="M87.5854 7.22975C89.7996 7.22975 91.5761 7.96827 92.915 9.44532C94.2538 10.8964 94.9232 12.8399 94.9232 15.2758V27.2087H89.1302V15.7811C89.1302 14.7964 88.8856 14.019 88.3964 13.4489C87.933 12.8788 87.2507 12.5938 86.3496 12.5938C85.397 12.5938 84.6503 12.9177 84.1096 13.5655C83.5947 14.2133 83.3372 15.1073 83.3372 16.2475V27.2087H77.5443V15.7811C77.5443 14.7964 77.2997 14.019 76.8105 13.4489C76.3471 12.8788 75.6648 12.5938 74.7637 12.5938C73.811 12.5938 73.0644 12.9177 72.5237 13.5655C72.0088 14.2133 71.7513 15.1073 71.7513 16.2475V27.2087H65.9584V7.77392H71.7513V9.56192C72.8069 8.00714 74.5319 7.22975 76.9264 7.22975C79.1663 7.22975 80.8527 8.08488 81.9856 9.79514C83.1699 8.08488 85.0365 7.22975 87.5854 7.22975Z" fill="white"/>
<path d="M104.058 19.8235C104.728 21.6374 106.272 22.5444 108.693 22.5444C110.263 22.5444 111.499 22.052 112.4 21.0673L117.035 23.7493C115.129 26.4184 112.323 27.7529 108.615 27.7529C105.371 27.7529 102.771 26.7812 100.814 24.8377C98.8832 22.8942 97.9177 20.4454 97.9177 17.4913C97.9177 14.5631 98.8703 12.1273 100.776 10.1838C102.707 8.21445 105.178 7.22975 108.191 7.22975C110.997 7.22975 113.327 8.21445 115.181 10.1838C117.06 12.1273 118 14.5631 118 17.4913C118 18.3205 117.923 19.0979 117.768 19.8235H104.058ZM103.942 15.4701H112.246C111.679 13.423 110.315 12.3994 108.152 12.3994C105.912 12.3994 104.509 13.423 103.942 15.4701Z" fill="white"/>
</svg>
